# xmcd
# 
# Track frame offsets:
#   150
#   17432
#   35780
#   52327
#   70455
#   89297
#   105666
#   127553
#   143416
#   162305
#   180069
#   197086
#   216182
#   234245
#   253198
# 
# Disc length: 3678 seconds
# 
# Revision: 2
# Processed by: cddbd v1.5.2PL0 Copyright (c) Steve Scherf et al.
# Submitted via: Synapstar 1.0 
# 
DISCID=c60e5c0f
DTITLE=Various Artist - SC8920
DYEAR=1900
DGENRE=Country
TTITLE0=Rimes, Leann - Probably Wouldn't Be This Way
TTITLE1=Bentley, Dierks - Lot Of Leavin Left To Do
TTITLE2=Trick Pony - It's A Heartache
TTITLE3=Tritt, Travis - I See Me
TTITLE4=Big and Rich - Big Time
TTITLE5=Shelton, Blake - Goodbye Time
TTITLE6=Chesney, Kenny - Guitars And Tiki Bars
TTITLE7=Morgan, Craig - That's What I Love About Sunday
TTITLE8=Clark, Terri - World Needs a Drink, The
TTITLE9=Dean, Billy - Let Them Be Little
TTITLE10=Keith, Toby - Honky Tonk U
TTITLE11=Canyon, George - My Name
TTITLE12=Wilson, Gretchen - What Happened
TTITLE13=Howard, Rebecca Lynn - That's Why I Hate Pontiacs
TTITLE14=Worley, Darryl - If Something Should Happen
EXTD=MediaType: Karaoke CD+G Producer: Sound Choice
EXTT0=
EXTT1=
EXTT2=
EXTT3=
EXTT4=
EXTT5=
EXTT6=
EXTT7=
EXTT8=
EXTT9=
EXTT10=
EXTT11=
EXTT12=
EXTT13=
EXTT14=
PLAYORDER=
